<?xml version="1.0" encoding="UTF-8" standalone="no" ?>
<!DOCTYPE svg PUBLIC "-//W3C//DTD SVG 1.1//EN" "http://www.w3.org/Graphics/SVG/1.1/DTD/svg11.dtd">
<svg xmlns="http://www.w3.org/2000/svg" xmlns:xlink="http://www.w3.org/1999/xlink" version="1.1" width="1280" height="1024" viewBox="0 0 1280 1024" xml:space="preserve">
<desc>Created with Fabric.js 5.3.0</desc>
<defs>
</defs>
<g transform="matrix(1 0 0 1 640 512)" id="background-logo"  >
<rect style="stroke: none; stroke-width: 0; stroke-dasharray: none; stroke-linecap: butt; stroke-dashoffset: 0; stroke-linejoin: miter; stroke-miterlimit: 4; fill: rgb(0,0,0); fill-rule: nonzero; opacity: 1;"  paint-order="stroke"  x="-640" y="-512" rx="0" ry="0" width="1280" height="1024" />
</g>
<g transform="matrix(3.9132173809826245 0 0 3.9132173809826245 640.6479799851742 513.1108228317272)" id="shape-f9a1fc79-122d-4a97-b290-fdf779bcc45c"  >
<g style=""  paint-order="stroke"   >
		<g transform="matrix(1 0 0 1 0 0)" id="path-01_00000027599892972353006730000002104457412855451538_"  >
<path style="stroke: none; stroke-width: 1; stroke-dasharray: none; stroke-linecap: butt; stroke-dashoffset: 0; stroke-linejoin: miter; stroke-miterlimit: 4; fill: rgb(57,255,20); fill-rule: nonzero; opacity: 1;"  paint-order="stroke"  transform=" translate(-888.7446939868119, -1097.5957075000001)" d="M 765.11707 1191.99731 L 869.3985 1011.37652 L 881.0072 1031.48339 L 779.56116 1207.19298 L 773.89032 1207.19298 C 766.09186 1207.19299 761.21777 1198.75098 765.11707 1191.99731 z M 971.01404 1160.57629 L 994.23139 1160.57629 L 897.51795 993.06366 C 893.61872 986.3100000000001 883.87067 986.3100000000001 879.97144 993.06366 L 877.13599 997.9746700000001 L 971.01404 1160.57629 z M 1001.96887 1173.97803 L 814.21289 1173.97803 L 795.03619 1207.193 L 1003.59906 1207.193 C 1011.3975800000001 1207.193 1016.27161 1198.75098 1012.37231 1191.99732 L 1001.96887 1173.97803 z" stroke-linecap="round" />
</g>
</g>
</g>
<g transform="matrix(0.023169234865873203 -1.3273645764799566 1.3273645764799566 0.023169234865873203 640.6479799851742 605.7296609329404)" id="shape-cc12d677-2b74-4b95-961d-ce492c59d24a"  >
<g style=""  paint-order="stroke"   >
		<g transform="matrix(1 0 0 1 0 0)" id="path-01_00000008112115104285357120000008781648590940273085_"  >
<path style="stroke: none; stroke-width: 1; stroke-dasharray: none; stroke-linecap: butt; stroke-dashoffset: 0; stroke-linejoin: miter; stroke-miterlimit: 4; fill: rgb(255,255,255); fill-rule: nonzero; opacity: 1;"  paint-order="stroke"  transform=" translate(-124.99999000000001, -57.26285)" d="M 231.07077 0 L 195.31912 0 L 176.38992 28.79782 L 176.38992 42.15131 L 73.60999 42.15131 L 73.60999 28.79782 L 54.68076 0 L 18.94498 0 L 0 28.79782 L 0 85.74393 L 18.94498 114.5257 L 54.68076 114.5257 L 73.60999 85.74393 L 73.60999 72.39044 L 176.38993 72.39044 L 176.38993 85.74393 L 195.31913 114.5257 L 231.07078 114.5257 L 249.99998000000002 85.74393 L 249.99998000000002 28.79782 L 231.07077 0 z M 227.93442 2.43948 L 243.66385 26.35833 L 219.19052 2.43948 L 227.93442 2.43948 z M 181.14206 30.22348 L 194.38460999999998 10.09048 L 195.36673 11.59524 L 183.10629 30.22347 L 183.10629 42.1513 L 181.14206000000001 42.1513 L 181.14206000000001 30.22348 z M 190.67795 46.90341 C 192.07187000000002 46.90341 193.29166 48.67731 194.0361 51.35443 L 55.96381 51.35443 C 56.708380000000005 48.67731 57.92801 46.90341 59.321960000000004 46.90341 L 190.67795 46.90341 z M 55.63123 10.09048 L 68.85788 30.22348 L 68.85788 42.151309999999995 L 66.89367999999999 42.151309999999995 L 66.89367999999999 30.22348 L 54.64914 11.59525 L 55.63123 10.09048 z M 22.08133 2.43948 L 30.80936 2.43948 L 6.3519 26.35834 L 22.08133 2.43948 z M 4.02341 35.56168 L 10.628820000000001 82.27477999999999 L 4.02341 82.27477999999999 L 4.02341 35.56168 z M 22.08133 112.10208 L 6.3519 88.1832 L 30.80936 112.10208 L 22.08133 112.10208 z M 35.13385 88.05655 L 10.660520000000002 85.74393 L 33.81906 83.54190000000001 C 33.24884 66.45032 33.23297 48.09143000000001 33.81906 30.983790000000013 L 10.660520000000002 28.797820000000012 L 35.13385 26.469150000000013 C 40.28195 19.261910000000015 45.7785 11.864410000000014 51.370180000000005 5.037330000000015 C 47.15659000000001 13.163430000000014 42.341190000000005 21.447880000000016 37.60492000000001 29.272930000000017 C 38.25433000000001 47.362650000000016 38.25433000000001 67.17894000000001 37.60492000000001 85.25279000000002 C 42.341190000000005 93.09367000000002 47.15659000000001 101.37816000000002 51.370180000000005 109.50444000000002 C 45.7785 102.66129 40.2977 95.27963 35.13385 88.05655 z M 56.62918 44.52734 C 49.21582 47.22012 49.20007 67.30557 56.62918 70.0144 C 46.22208 69.82431 46.20621 44.70139 56.62918 44.52734 z M 68.85788 84.31805 L 55.631229999999995 104.45125999999999 L 54.649139999999996 102.94631999999999 L 66.89367999999999 84.31804999999999 L 66.89367999999999 72.39044 L 68.85788 72.39044 L 68.85788 84.31805 z M 55.28268 58.8786 C 55.25097 58.35593 55.23523 57.81723 55.23523 57.26285 C 55.23523 56.882690000000004 55.23523 56.4867 55.25098 56.10654 L 194.74894 56.10654 C 194.76481 56.4867 194.78062 56.882690000000004 194.78062 57.26285 C 194.78062 57.81723 194.74894 58.35593 194.7172 58.8786 L 55.28268 58.8786 z M 194.38461 104.45126 L 181.14206000000001 84.31805 L 181.14206000000001 72.39044 L 183.10629 72.39044 L 183.10629 84.31805 L 195.36673 102.94632 L 194.38461 104.45126 z M 193.38669 70.0144 C 200.81577 67.30556999999999 200.78409 47.220119999999994 193.38669 44.527339999999995 C 203.80954 44.70139 203.79379 69.82431 193.38669 70.0144 z M 198.62979 109.50443 C 202.85916 101.37815 207.67459000000002 93.09366 212.41092 85.25278 C 211.76144 67.17893000000001 211.74558000000002 47.36264 212.39505 29.27292 C 207.65884 21.447879999999998 202.84329 13.163419999999999 198.62978999999999 5.037319999999998 C 204.2214 11.864409999999998 209.71804999999998 19.261899999999997 214.88198999999997 26.469139999999996 L 239.33950999999996 28.797809999999995 L 216.18093999999996 30.983779999999996 C 216.76699999999997 48.09142 216.76699999999997 66.4503 216.18093999999996 83.54189 L 239.33950999999996 85.74391999999999 L 214.86617999999996 88.05653999999998 C 209.70218 95.27963 204.22141 102.66129 198.62979 109.50443 z M 227.93442 112.10208 L 219.19052 112.10208 L 243.66385 88.1832 L 227.93442 112.10208 z M 245.99234 82.27478 L 239.38693 82.27478 L 245.99234 35.56168000000001 L 245.99234 82.27478 z" stroke-linecap="round" />
</g>
</g>
</g>
</svg>